<svg width="1214" height="900" viewBox="0 0 1214 900" fill="none" xmlns="http://www.w3.org/2000/svg">
<path fill-rule="evenodd" fill-opacity="0.05" clip-rule="evenodd" d="M890.003 34.7134C889.521 34.3943 888.862 34.9173 889.234 35.361C907.08 56.6725 1026.12 202.544 955.359 219.405C935.515 224.134 908.557 196.638 874.636 162.041C856.235 143.273 835.785 122.414 813.309 103.477C758.76 57.5136 689.538 26.9799 638.772 20.0313C488.819 -0.493689 389.023 -19.0045 330.646 -75.175C310.194 -94.853 294.853 -119.177 278.669 -144.835C249.012 -191.855 216.528 -243.357 144.593 -278.967C144.151 -279.185 143.648 -278.722 143.874 -278.285C147.908 -270.511 166.717 -230.815 166.436 -167.049C166.344 -146.117 164.173 -128.907 162.025 -111.878C156.843 -70.8067 154.258 -5.87752 176.361 57.8803C198.465 121.638 236.864 160.596 302.042 228.015C330.373 257.319 361.604 281.581 389.319 303.111C444.349 345.862 485.513 377.839 462.557 417.124C441.1 453.843 399.262 437.26 373.149 403.715C347.037 370.17 321.208 336.727 279.867 308.883C235.105 278.734 153.818 282.996 141.318 283.852C140.821 283.886 140.697 284.52 141.134 284.76C151.533 290.472 215.578 326.75 256.427 375.426C290.063 415.506 317.967 512.039 317.967 512.039C317.967 512.039 317.967 512.039 317.967 512.039C317.967 512.039 327.6 545.366 333.368 562.704C356.887 633.397 424.748 704.451 509.677 750.977C594.355 797.364 793.854 835.182 898.431 792.428C898.816 792.271 898.835 791.746 898.475 791.54L565.527 601.687C545.281 590.143 538.403 564.473 550.164 544.351L687.801 308.884C698.114 291.24 719.668 283.386 738.961 290.242L1121.42 426.139C1122.36 426.475 1123.29 426.84 1124.19 427.233C1124.53 427.38 1124.91 427.132 1124.9 426.764C1121.96 288.508 1051.09 141.204 890.003 34.7134ZM1077.72 524.003C1077.58 524.239 1077.27 524.321 1077.04 524.185L795.03 363.38C794.502 363.079 794.865 362.275 795.439 362.472L1079.98 460.041C1095.19 465.077 1101.87 482.682 1093.8 496.492L1077.72 524.003ZM899.054 524.446C886.906 517.519 871.338 521.69 864.281 533.763L818.495 612.093C811.439 624.165 815.566 639.567 827.713 646.494L972.515 729.063C984.663 735.99 1000.23 731.818 1007.29 719.746L1053.07 641.416C1060.13 629.343 1056 613.941 1043.86 607.015L899.054 524.446ZM965.549 674.086C977.697 681.013 993.265 676.842 1000.32 664.769C1007.38 652.696 1003.25 637.294 991.104 630.367C978.956 623.441 963.388 627.612 956.331 639.685C949.274 651.757 953.401 667.159 965.549 674.086Z" fill="black"/>
</svg>
